<svg xmlns="http://www.w3.org/2000/svg" width="340" height="940" viewBox="0 0 340 940" font-family="-apple-system, 'Segoe UI', Helvetica, Arial, sans-serif">
  <!-- status-pipe wireframe v2: side tray. Scenario = design/08-workflow-simulation.md, 08:30.
       Visual language (design/05-ui.md): codicon-style glyphs only, one indicator per fact,
       non-default status only, hover for detail, reserved activity slot (no layout shift). -->
  <defs>
    <symbol id="i-person" viewBox="0 0 16 16"><g fill="none" stroke="currentColor" stroke-width="1.4"><circle cx="8" cy="5" r="2.6"/><path d="M3 13.5 a5 4.5 0 0 1 10 0"/></g></symbol>
    <symbol id="i-eye" viewBox="0 0 16 16"><g fill="none" stroke="currentColor" stroke-width="1.4"><path d="M1.5 8 C4.5 3.8 11.5 3.8 14.5 8 C11.5 12.2 4.5 12.2 1.5 8 Z"/><circle cx="8" cy="8" r="1.8"/></g></symbol>
    <symbol id="i-merge" viewBox="0 0 16 16"><g fill="none" stroke="currentColor" stroke-width="1.4"><circle cx="4" cy="3.5" r="1.7"/><circle cx="4" cy="12.5" r="1.7"/><circle cx="12" cy="8" r="1.7"/><path d="M4 5.2 v5.6 M4 7 c0 2.5 3.5 1 6.3 1"/></g></symbol>
    <symbol id="i-pulse" viewBox="0 0 16 16"><polyline points="1,9 4.5,9 6.5,4 9.5,12.5 11.5,9 15,9" fill="none" stroke="currentColor" stroke-width="1.4" stroke-linejoin="round"/></symbol>
    <symbol id="i-x" viewBox="0 0 16 16"><g stroke="currentColor" stroke-width="1.6"><line x1="4" y1="4" x2="12" y2="12"/><line x1="12" y1="4" x2="4" y2="12"/></g></symbol>
    <symbol id="i-clock" viewBox="0 0 16 16"><g fill="none" stroke="currentColor" stroke-width="1.4"><circle cx="8" cy="8" r="6"/><path d="M8 4.5 V8 l2.5 2"/></g></symbol>
    <symbol id="i-check" viewBox="0 0 16 16"><polyline points="3,8.5 6.5,12 13,4.5" fill="none" stroke="currentColor" stroke-width="1.6" stroke-linejoin="round"/></symbol>
    <symbol id="i-comment" viewBox="0 0 16 16"><path d="M2.5 3 h11 v8 h-6.5 l-2.5 2.5 v-2.5 h-2 z" fill="none" stroke="currentColor" stroke-width="1.4" stroke-linejoin="round"/></symbol>
    <symbol id="i-mail" viewBox="0 0 16 16"><g fill="none" stroke="currentColor" stroke-width="1.4"><rect x="2" y="3.5" width="12" height="9" rx="1"/><path d="M2.5 4.5 L8 9 L13.5 4.5"/></g></symbol>
    <symbol id="i-sync" viewBox="0 0 16 16"><g fill="none" stroke="currentColor" stroke-width="1.5"><path d="M13.5 8 a5.5 5.5 0 1 1 -2.2 -4.4"/><path d="M13.5 2.5 v3 h-3" fill="none"/></g></symbol>
    <symbol id="i-filter" viewBox="0 0 16 16"><path d="M2 3.5 h12 l-4.6 5 v4.5 l-2.8 -1.6 v-2.9 z" fill="none" stroke="currentColor" stroke-width="1.3" stroke-linejoin="round"/></symbol>
    <symbol id="i-chev" viewBox="0 0 16 16"><polyline points="5,3.5 11,8 5,12.5" fill="none" stroke="currentColor" stroke-width="1.5" stroke-linejoin="round"/></symbol>
  </defs>

  <rect width="340" height="940" fill="#1e1e1e"/>

  <!-- ===== header (fixed row; far-right 16px = reserved activity slot) ===== -->
  <rect x="0" y="0" width="340" height="30" fill="#252526"/>
  <text x="12" y="19" fill="#bbbbbb" font-size="11" font-weight="700" letter-spacing="1">STATUS PIPE</text>
  <text x="116" y="19" fill="#f48771" font-size="11" font-weight="700">4</text>
  <use href="#i-filter" x="270" y="8" width="13" height="13" color="#8a8a8a"/>
  <text x="292" y="20" fill="#8a8a8a" font-size="12">⋯</text>
  <use href="#i-sync" x="313" y="8" width="13" height="13" color="#3794ff"/>
  <text x="338" y="40" fill="#5a5a5a" font-size="7" text-anchor="end" font-style="italic">reserved activity slot — spinner/warn/empty, geometry never changes</text>

  <!-- ===== agents strip (fleet mode; one fixed row, expands on click) ===== -->
  <rect x="0" y="48" width="340" height="22" fill="#232324"/>
  <use href="#i-chev" x="8" y="54" width="10" height="10" color="#6e6e6e"/>
  <use href="#i-pulse" x="24" y="54" width="11" height="11" color="#3794ff"/>
  <text x="41" y="63" fill="#9a9a9a" font-size="9">agents: 1 running · 1 scheduled 3m · <tspan fill="#f48771">1 failed</tspan></text>

  <!-- ===== lane: NEEDS YOU ===== -->
  <text x="12" y="90" fill="#e0e0e0" font-size="10" font-weight="700">▾ NEEDS YOU (4)</text>

  <!-- E6: stale run -->
  <g>
    <rect x="10" y="98" width="320" height="92" rx="4" fill="#2d2d30" stroke="#3c3c3c"/>
    <rect x="10" y="98" width="3" height="92" rx="1.5" fill="#f48771"/>
    <rect x="20" y="106" width="42" height="13" rx="6.5" fill="#4b2a52"/>
    <text x="41" y="115.5" fill="#d8b4e2" font-size="8" text-anchor="middle">fleet-ui</text>
    <text x="68" y="116" fill="#3794ff" font-size="10" font-weight="600">#95</text>
    <text x="92" y="116" fill="#cccccc" font-size="10" font-weight="600">i18n extraction</text>
    <text x="282" y="116" fill="#6e6e6e" font-size="8" text-anchor="end">implementation</text>
    <text x="324" y="116" fill="#6e6e6e" font-size="8" text-anchor="end">47m</text>
    <text x="22" y="134" fill="#9a9a9a" font-size="9">Extracting locale strings from fleet-ui components; 61 of</text>
    <text x="22" y="146" fill="#9a9a9a" font-size="9">214 files migrated to message catalog.</text>
    <text x="22" y="164" fill="#f48771" font-size="9">run stale — last heartbeat 47m ago (threshold 15m)</text>
    <rect x="20" y="170" width="74" height="16" rx="3" fill="#0e639c"/>
    <text x="57" y="181" fill="#ffffff" font-size="9" text-anchor="middle">Restart run</text>
  </g>

  <!-- E1: owner question + blocker -->
  <g>
    <rect x="10" y="196" width="320" height="112" rx="4" fill="#2d2d30" stroke="#3c3c3c"/>
    <rect x="10" y="196" width="3" height="112" rx="1.5" fill="#f48771"/>
    <rect x="20" y="204" width="46" height="13" rx="6.5" fill="#1f3a5f"/>
    <text x="43" y="213.5" fill="#9cc3ee" font-size="8" text-anchor="middle">fleet-api</text>
    <text x="72" y="214" fill="#3794ff" font-size="10" font-weight="600">#142</text>
    <text x="102" y="214" fill="#cccccc" font-size="10" font-weight="600">Auth token rotation</text>
    <text x="286" y="214" fill="#6e6e6e" font-size="8" text-anchor="end">planning</text>
    <text x="324" y="214" fill="#6e6e6e" font-size="8" text-anchor="end">35m</text>
    <text x="22" y="232" fill="#9a9a9a" font-size="9">Posted design question: rotation via refresh-token chain (A)</text>
    <text x="22" y="244" fill="#9a9a9a" font-size="9">or sliding window (B); parked pending owner decision.</text>
    <use href="#i-person" x="21" y="252" width="11" height="11" color="#cca700"/>
    <text x="37" y="261" fill="#cca700" font-size="9">design question on tracking issue · 35m</text>
    <text x="22" y="278" fill="#f48771" font-size="9">Needs decision: token rotation strategy A vs B</text>
    <rect x="20" y="285" width="86" height="16" rx="3" fill="#0e639c"/>
    <text x="63" y="296" fill="#ffffff" font-size="9" text-anchor="middle">Open question</text>
    <rect x="112" y="285" width="122" height="16" rx="3" fill="#3c3c3c"/>
    <text x="173" y="296" fill="#cccccc" font-size="9" text-anchor="middle">Ready for another look</text>
  </g>

  <!-- E2: review, stacked PRs -->
  <g>
    <rect x="10" y="314" width="320" height="150" rx="4" fill="#2d2d30" stroke="#3c3c3c"/>
    <rect x="10" y="314" width="3" height="150" rx="1.5" fill="#cca700"/>
    <rect x="20" y="322" width="46" height="13" rx="6.5" fill="#1f3a5f"/>
    <text x="43" y="331.5" fill="#9cc3ee" font-size="8" text-anchor="middle">fleet-api</text>
    <text x="72" y="332" fill="#3794ff" font-size="10" font-weight="600">#155</text>
    <text x="102" y="332" fill="#cccccc" font-size="10" font-weight="600">Rate limiter</text>
    <text x="290" y="332" fill="#6e6e6e" font-size="8" text-anchor="end">review</text>
    <text x="324" y="332" fill="#6e6e6e" font-size="8" text-anchor="end">14h</text>
    <text x="22" y="350" fill="#9a9a9a" font-size="9">T1a+T1b implemented and green; stack ready for first review</text>
    <text x="22" y="362" fill="#9a9a9a" font-size="9">pass starting at #512.</text>
    <use href="#i-eye" x="21" y="370" width="11" height="11" color="#cca700"/>
    <text x="37" y="379" fill="#cca700" font-size="9">PR #512 awaits your review · 14h</text>
    <!-- PR row 1: CI passing → no badge; unresolved comments + linked issue show -->
    <text x="28" y="394" fill="#6e6e6e" font-size="8">↑ main</text>
    <rect x="20" y="398" width="300" height="18" rx="3" fill="#252526"/>
    <text x="26" y="410.5" fill="#3794ff" font-size="9" font-weight="600">#512</text>
    <text x="54" y="410.5" fill="#9cc3ee" font-size="8">T1a</text>
    <text x="74" y="410.5" fill="#8a8a8a" font-size="8">rate-limit-core</text>
    <use href="#i-comment" x="240" y="402" width="10" height="10" color="#cca700"/>
    <text x="254" y="410.5" fill="#cca700" font-size="8">2</text>
    <text x="282" y="410.5" fill="#3794ff" font-size="8">→ #91</text>
    <text x="28" y="428" fill="#6e6e6e" font-size="8">↓ T1b #513</text>
    <!-- PR row 2: draft + CI pending show; nothing else -->
    <text x="28" y="440" fill="#6e6e6e" font-size="8">↑ T1a #512</text>
    <rect x="20" y="444" width="300" height="18" rx="3" fill="#252526"/>
    <text x="26" y="456.5" fill="#3794ff" font-size="9" font-weight="600">#513</text>
    <text x="54" y="456.5" fill="#9cc3ee" font-size="8">T1b</text>
    <text x="74" y="456.5" fill="#8a8a8a" font-size="8">rate-limit-redis</text>
    <text x="180" y="456.5" fill="#6e6e6e" font-size="8">draft</text>
    <use href="#i-clock" x="240" y="448" width="10" height="10" color="#cca700"/>
    <text x="254" y="456.5" fill="#cca700" font-size="8">CI</text>
  </g>
  <!-- action row sits inside card bottom in real UI; omitted here: primary action appears on the waiting line's right on hover -->

  <!-- E5: awaiting merge -->
  <g>
    <rect x="10" y="470" width="320" height="84" rx="4" fill="#2d2d30" stroke="#3c3c3c"/>
    <rect x="10" y="470" width="3" height="84" rx="1.5" fill="#cca700"/>
    <rect x="20" y="478" width="42" height="13" rx="6.5" fill="#4b2a52"/>
    <text x="41" y="487.5" fill="#d8b4e2" font-size="8" text-anchor="middle">fleet-ui</text>
    <text x="68" y="488" fill="#3794ff" font-size="10" font-weight="600">#91</text>
    <text x="92" y="488" fill="#cccccc" font-size="10" font-weight="600">Login redirect</text>
    <text x="286" y="488" fill="#6e6e6e" font-size="8" text-anchor="end">awaiting-merge</text>
    <text x="324" y="488" fill="#6e6e6e" font-size="8" text-anchor="end">2h</text>
    <use href="#i-merge" x="21" y="496" width="11" height="11" color="#cca700"/>
    <text x="37" y="505" fill="#cca700" font-size="9">#198 approved and green; branch protection · 2h</text>
    <text x="28" y="520" fill="#6e6e6e" font-size="8">↑ main</text>
    <rect x="20" y="524" width="218" height="18" rx="3" fill="#252526"/>
    <text x="26" y="536.5" fill="#3794ff" font-size="9" font-weight="600">#198</text>
    <text x="54" y="536.5" fill="#8a8a8a" font-size="8">login-redirect-fix</text>
    <use href="#i-check" x="200" y="528" width="10" height="10" color="#89d185"/>
    <rect x="246" y="524" width="74" height="18" rx="3" fill="#0e639c"/>
    <text x="283" y="536.5" fill="#ffffff" font-size="9" text-anchor="middle">Open PR</text>
  </g>

  <!-- ===== lane: WAITING ===== -->
  <text x="12" y="582" fill="#e0e0e0" font-size="10" font-weight="700">▾ WAITING ON WORLD (2)</text>

  <!-- E3 -->
  <g>
    <rect x="10" y="590" width="320" height="64" rx="4" fill="#2d2d30" stroke="#3c3c3c"/>
    <rect x="10" y="590" width="3" height="64" rx="1.5" fill="#3794ff"/>
    <rect x="20" y="598" width="46" height="13" rx="6.5" fill="#1f3a5f"/>
    <text x="43" y="607.5" fill="#9cc3ee" font-size="8" text-anchor="middle">fleet-api</text>
    <text x="72" y="608" fill="#3794ff" font-size="10" font-weight="600">#161</text>
    <text x="102" y="608" fill="#cccccc" font-size="10" font-weight="600">Audit log export</text>
    <text x="282" y="608" fill="#6e6e6e" font-size="8" text-anchor="end">implementation</text>
    <text x="324" y="608" fill="#6e6e6e" font-size="8" text-anchor="end">40s</text>
    <text x="22" y="626" fill="#9a9a9a" font-size="9">Writing exporter batch tests; 14 of 18 cases passing locally.</text>
    <use href="#i-pulse" x="21" y="634" width="11" height="11" color="#3794ff"/>
    <text x="37" y="643" fill="#3794ff" font-size="9">running · heartbeat 40s</text>
    <use href="#i-clock" x="170" y="634" width="10" height="10" color="#cca700"/>
    <text x="184" y="643" fill="#cca700" font-size="9">CI</text>
  </g>

  <!-- E4 -->
  <g>
    <rect x="10" y="660" width="320" height="64" rx="4" fill="#2d2d30" stroke="#3c3c3c"/>
    <rect x="10" y="660" width="3" height="64" rx="1.5" fill="#3794ff"/>
    <rect x="20" y="668" width="42" height="13" rx="6.5" fill="#4b2a52"/>
    <text x="41" y="677.5" fill="#d8b4e2" font-size="8" text-anchor="middle">fleet-ui</text>
    <text x="68" y="678" fill="#3794ff" font-size="10" font-weight="600">#88</text>
    <text x="92" y="678" fill="#cccccc" font-size="10" font-weight="600">Theme tokens</text>
    <text x="290" y="678" fill="#6e6e6e" font-size="8" text-anchor="end">fixing</text>
    <text x="324" y="678" fill="#6e6e6e" font-size="8" text-anchor="end">6m</text>
    <text x="22" y="696" fill="#9a9a9a" font-size="9">Snapshot diffs on #203 traced to stale token map; re-render</text>
    <use href="#i-x" x="21" y="704" width="10" height="10" color="#f48771"/>
    <text x="36" y="713" fill="#f48771" font-size="9">CI #203</text>
    <use href="#i-pulse" x="92" y="704" width="11" height="11" color="#3794ff"/>
    <text x="108" y="713" fill="#3794ff" font-size="9">fixing · heartbeat 1m</text>
  </g>

  <!-- ===== lane: QUIET (collapsed) ===== -->
  <text x="12" y="748" fill="#8a8a8a" font-size="10" font-weight="700">▸ QUIET (1)</text>

  <!-- empty-state variant -->
  <rect x="10" y="764" width="320" height="58" rx="4" fill="#252526" stroke="#3c3c3c" stroke-dasharray="4 3"/>
  <text x="170" y="788" fill="#6e6e6e" font-size="9" text-anchor="middle" font-style="italic">[empty NEEDS YOU lane renders instead as:]</text>
  <text x="170" y="806" fill="#89d185" font-size="11" text-anchor="middle" font-weight="600">All quiet — 3 agents running, 2 done today.</text>

  <!-- footer -->
  <rect x="0" y="836" width="340" height="1" fill="#3c3c3c"/>
  <text x="12" y="854" fill="#6e6e6e" font-size="9">▸ inactive folders (no .autopilot): scratch-notes, dotfiles</text>

  <!-- hover affordance notes -->
  <text x="12" y="884" fill="#5a5a5a" font-size="8" font-style="italic">hover reveals: full headline · per-check CI list · comment totals incl.</text>
  <text x="12" y="895" fill="#5a5a5a" font-size="8" font-style="italic">resolvable captioning · ack withdraw · agent row controls · repo "last ran"</text>
  <text x="12" y="906" fill="#5a5a5a" font-size="8" font-style="italic">passing CI, zero counts, neutral review state render nothing (non-default only)</text>
  <text x="12" y="924" fill="#5a5a5a" font-size="8" font-style="italic">single-repo mode: repo badges hidden; agents strip = "agent: scheduled · next 3m"</text>
</svg>
